<mxfile host="app.diagrams.net" agent="Mozilla/5.0 (X11; Linux x86_64) AppleWebKit/537.36 (KHTML, like Gecko) Chrome/127.0.0.0 Safari/537.36" version="26.2.12">
  <diagram name="第 1 页" id="GNWNqwkdoBEumHOThj2O">
    <mxGraphModel dx="2125" dy="725" grid="1" gridSize="10" guides="1" tooltips="1" connect="1" arrows="1" fold="1" page="1" pageScale="1" pageWidth="827" pageHeight="1169" math="0" shadow="0">
      <root>
        <mxCell id="0" />
        <mxCell id="1" parent="0" />
        <mxCell id="KYylSTwYR2nfnOGgtG4M-55" value="" style="rounded=0;whiteSpace=wrap;html=1;fillColor=#fff2cc;strokeColor=#d6b656;labelBackgroundColor=none;" parent="1" vertex="1">
          <mxGeometry x="676.5" y="242" width="110" height="50" as="geometry" />
        </mxCell>
        <mxCell id="KYylSTwYR2nfnOGgtG4M-1" value="" style="rounded=1;whiteSpace=wrap;html=1;sketch=1;curveFitting=1;jiggle=2;" parent="1" vertex="1">
          <mxGeometry x="238.5" y="332" width="280" height="210" as="geometry" />
        </mxCell>
        <mxCell id="KYylSTwYR2nfnOGgtG4M-2" value="&lt;font face=&quot;Comic Sans MS&quot;&gt;LiDAR SLAM&lt;/font&gt;" style="text;html=1;align=center;verticalAlign=middle;resizable=0;points=[];autosize=1;strokeColor=none;fillColor=none;fontSize=18;" parent="1" vertex="1">
          <mxGeometry x="242" y="297" width="130" height="40" as="geometry" />
        </mxCell>
        <mxCell id="KYylSTwYR2nfnOGgtG4M-5" value="" style="group;fillColor=#f8cecc;strokeColor=#b85450;container=0;" parent="1" vertex="1" connectable="0">
          <mxGeometry x="260" y="347" width="110" height="50" as="geometry" />
        </mxCell>
        <mxCell id="KYylSTwYR2nfnOGgtG4M-6" value="" style="group;fillColor=default;strokeColor=none;gradientColor=none;rounded=0;container=0;" parent="1" vertex="1" connectable="0">
          <mxGeometry x="385" y="347" width="110" height="50" as="geometry" />
        </mxCell>
        <mxCell id="KYylSTwYR2nfnOGgtG4M-10" value="" style="rounded=1;whiteSpace=wrap;html=1;sketch=1;curveFitting=1;jiggle=2;" parent="1" vertex="1">
          <mxGeometry x="527.5" y="217" width="280" height="100" as="geometry" />
        </mxCell>
        <mxCell id="KYylSTwYR2nfnOGgtG4M-11" value="&lt;font face=&quot;Comic Sans MS&quot;&gt;3D GS&lt;/font&gt;" style="text;html=1;align=center;verticalAlign=middle;resizable=0;points=[];autosize=1;strokeColor=none;fillColor=none;fontSize=18;" parent="1" vertex="1">
          <mxGeometry x="527.5" y="183" width="80" height="40" as="geometry" />
        </mxCell>
        <mxCell id="KYylSTwYR2nfnOGgtG4M-12" value="" style="group;fillColor=#fff2cc;strokeColor=#d6b656;labelBackgroundColor=none;" parent="1" vertex="1" connectable="0">
          <mxGeometry x="550" y="242" width="114.5" height="50" as="geometry" />
        </mxCell>
        <mxCell id="KYylSTwYR2nfnOGgtG4M-37" value="" style="group;labelBackgroundColor=none;" parent="1" vertex="1" connectable="0">
          <mxGeometry x="384" y="411" width="110" height="50" as="geometry" />
        </mxCell>
        <mxCell id="KYylSTwYR2nfnOGgtG4M-104" value="" style="group" parent="KYylSTwYR2nfnOGgtG4M-37" vertex="1" connectable="0">
          <mxGeometry x="-2.5" y="1" width="115" height="50" as="geometry" />
        </mxCell>
        <mxCell id="KYylSTwYR2nfnOGgtG4M-39" value="" style="rounded=0;whiteSpace=wrap;html=1;fillColor=#fff2cc;strokeColor=#d6b656;labelBackgroundColor=none;" parent="KYylSTwYR2nfnOGgtG4M-104" vertex="1">
          <mxGeometry x="2.5" width="110" height="50" as="geometry" />
        </mxCell>
        <mxCell id="KYylSTwYR2nfnOGgtG4M-40" value="&lt;span style=&quot;color: rgb(73, 78, 82); font-size: 15px; font-style: normal; font-variant-ligatures: normal; font-variant-caps: normal; font-weight: 400; letter-spacing: normal; orphans: 3; text-indent: 0px; text-transform: none; widows: 3; word-spacing: 0px; -webkit-text-stroke-width: 0px; white-space: normal; text-decoration-thickness: initial; text-decoration-style: initial; text-decoration-color: initial; float: none; display: inline !important;&quot;&gt;&lt;font face=&quot;Times New Roman&quot;&gt;USTC FLICAR&lt;/font&gt;&lt;/span&gt;&lt;div style=&quot;orphans: 3; widows: 3;&quot;&gt;&lt;font face=&quot;Times New Roman&quot; color=&quot;#494e52&quot;&gt;&lt;span style=&quot;font-size: 15px;&quot;&gt;IJRR, 2023&lt;/span&gt;&lt;/font&gt;&lt;/div&gt;" style="text;whiteSpace=wrap;html=1;align=center;fillColor=none;strokeColor=none;labelBackgroundColor=none;" parent="KYylSTwYR2nfnOGgtG4M-104" vertex="1">
          <mxGeometry width="115" height="40" as="geometry" />
        </mxCell>
        <mxCell id="KYylSTwYR2nfnOGgtG4M-41" value="" style="group;fillColor=#fff2cc;strokeColor=#d6b656;labelBackgroundColor=none;" parent="1" vertex="1" connectable="0">
          <mxGeometry x="260" y="412" width="110" height="50" as="geometry" />
        </mxCell>
        <mxCell id="KYylSTwYR2nfnOGgtG4M-45" value="" style="rounded=1;whiteSpace=wrap;html=1;sketch=1;curveFitting=1;jiggle=2;" parent="1" vertex="1">
          <mxGeometry x="-55" y="225" width="280" height="100" as="geometry" />
        </mxCell>
        <mxCell id="KYylSTwYR2nfnOGgtG4M-46" value="&lt;font face=&quot;Comic Sans MS&quot;&gt;Relocalization&lt;/font&gt;" style="text;html=1;align=center;verticalAlign=middle;resizable=0;points=[];autosize=1;strokeColor=none;fillColor=none;fontSize=18;" parent="1" vertex="1">
          <mxGeometry x="-54" y="191" width="140" height="40" as="geometry" />
        </mxCell>
        <mxCell id="KYylSTwYR2nfnOGgtG4M-54" value="" style="group;fillColor=#fff2cc;strokeColor=#d6b656;container=0;labelBackgroundColor=none;" parent="1" vertex="1" connectable="0">
          <mxGeometry x="676.5" y="242" width="110" height="50" as="geometry" />
        </mxCell>
        <mxCell id="KYylSTwYR2nfnOGgtG4M-56" value="&lt;span style=&quot;color: rgb(73, 78, 82); font-size: 15px; font-style: normal; font-variant-ligatures: normal; font-variant-caps: normal; font-weight: 400; letter-spacing: normal; orphans: 3; text-indent: 0px; text-transform: none; widows: 3; word-spacing: 0px; -webkit-text-stroke-width: 0px; white-space: normal; text-decoration-thickness: initial; text-decoration-style: initial; text-decoration-color: initial; float: none; display: inline !important;&quot;&gt;&lt;font style=&quot;&quot; face=&quot;Times New Roman&quot;&gt;OG-Gaussian&lt;/font&gt;&lt;/span&gt;&lt;div&gt;&lt;span style=&quot;color: rgb(73, 78, 82); font-size: 15px; font-style: normal; font-variant-ligatures: normal; font-variant-caps: normal; font-weight: 400; letter-spacing: normal; orphans: 3; text-indent: 0px; text-transform: none; widows: 3; word-spacing: 0px; -webkit-text-stroke-width: 0px; white-space: normal; text-decoration-thickness: initial; text-decoration-style: initial; text-decoration-color: initial; float: none; display: inline !important;&quot;&gt;&lt;font style=&quot;&quot; face=&quot;Times New Roman&quot;&gt;ICRA, 2025&lt;/font&gt;&lt;/span&gt;&lt;/div&gt;" style="text;whiteSpace=wrap;html=1;align=center;labelBackgroundColor=none;fillColor=none;" parent="1" vertex="1">
          <mxGeometry x="684" y="242" width="95" height="40" as="geometry" />
        </mxCell>
        <mxCell id="KYylSTwYR2nfnOGgtG4M-63" value="" style="rounded=1;whiteSpace=wrap;html=1;sketch=1;curveFitting=1;jiggle=2;" parent="1" vertex="1">
          <mxGeometry x="-78" y="398" width="280" height="100" as="geometry" />
        </mxCell>
        <mxCell id="KYylSTwYR2nfnOGgtG4M-64" value="&lt;font face=&quot;Comic Sans MS&quot;&gt;Calibration&lt;/font&gt;" style="text;html=1;align=center;verticalAlign=middle;resizable=0;points=[];autosize=1;strokeColor=none;fillColor=none;fontSize=18;" parent="1" vertex="1">
          <mxGeometry x="-83" y="363" width="110" height="40" as="geometry" />
        </mxCell>
        <mxCell id="KYylSTwYR2nfnOGgtG4M-68" value="" style="group;fillColor=none;strokeColor=#d6b656;labelBackgroundColor=none;" parent="1" vertex="1" connectable="0">
          <mxGeometry x="-54" y="423" width="110" height="50" as="geometry" />
        </mxCell>
        <mxCell id="KYylSTwYR2nfnOGgtG4M-70" value="" style="group;fillColor=#fff2cc;strokeColor=#d6b656;labelBackgroundColor=none;" parent="KYylSTwYR2nfnOGgtG4M-68" vertex="1" connectable="0">
          <mxGeometry width="110" height="50" as="geometry" />
        </mxCell>
        <mxCell id="KYylSTwYR2nfnOGgtG4M-65" value="" style="rounded=0;whiteSpace=wrap;html=1;fillColor=#fff2cc;strokeColor=#d6b656;labelBackgroundColor=none;" parent="KYylSTwYR2nfnOGgtG4M-70" vertex="1">
          <mxGeometry width="110" height="50" as="geometry" />
        </mxCell>
        <mxCell id="KYylSTwYR2nfnOGgtG4M-66" value="&lt;div style=&quot;orphans: 3; widows: 3;&quot;&gt;&lt;font face=&quot;Times New Roman&quot; color=&quot;#494e52&quot;&gt;&lt;span style=&quot;font-size: 15px;&quot;&gt;EdgeCalib&lt;/span&gt;&lt;/font&gt;&lt;/div&gt;&lt;div&gt;&lt;span style=&quot;color: rgb(73, 78, 82); font-size: 15px; font-style: normal; font-variant-ligatures: normal; font-variant-caps: normal; font-weight: 400; letter-spacing: normal; orphans: 3; text-indent: 0px; text-transform: none; widows: 3; word-spacing: 0px; -webkit-text-stroke-width: 0px; white-space: normal; text-decoration-thickness: initial; text-decoration-style: initial; text-decoration-color: initial; float: none; display: inline !important;&quot;&gt;&lt;font face=&quot;Times New Roman&quot;&gt;RAL, 2024&lt;/font&gt;&lt;/span&gt;&lt;/div&gt;" style="text;whiteSpace=wrap;html=1;align=center;fillColor=#fff2cc;strokeColor=none;labelBackgroundColor=none;" parent="KYylSTwYR2nfnOGgtG4M-70" vertex="1">
          <mxGeometry x="15" width="80" height="40" as="geometry" />
        </mxCell>
        <mxCell id="KYylSTwYR2nfnOGgtG4M-73" value="" style="group;fillColor=#f8cecc;strokeColor=#b85450;container=0;" parent="1" vertex="1" connectable="0">
          <mxGeometry x="67" y="423" width="110" height="50" as="geometry" />
        </mxCell>
        <mxCell id="KYylSTwYR2nfnOGgtG4M-78" value="" style="rounded=1;whiteSpace=wrap;html=1;sketch=1;curveFitting=1;jiggle=2;" parent="1" vertex="1">
          <mxGeometry x="240" y="580" width="280" height="100" as="geometry" />
        </mxCell>
        <mxCell id="KYylSTwYR2nfnOGgtG4M-79" value="&lt;font face=&quot;Comic Sans MS&quot;&gt;Multi-robot&lt;/font&gt;" style="text;html=1;align=center;verticalAlign=middle;resizable=0;points=[];autosize=1;strokeColor=none;fillColor=none;fontSize=18;" parent="1" vertex="1">
          <mxGeometry x="235" y="545" width="120" height="40" as="geometry" />
        </mxCell>
        <mxCell id="KYylSTwYR2nfnOGgtG4M-88" value="" style="rounded=1;whiteSpace=wrap;html=1;sketch=1;curveFitting=1;jiggle=2;" parent="1" vertex="1">
          <mxGeometry x="536.5" y="550" width="273.5" height="130" as="geometry" />
        </mxCell>
        <mxCell id="KYylSTwYR2nfnOGgtG4M-89" value="&lt;font face=&quot;Comic Sans MS&quot;&gt;Perception&lt;/font&gt;" style="text;html=1;align=center;verticalAlign=middle;resizable=0;points=[];autosize=1;strokeColor=none;fillColor=none;fontSize=18;" parent="1" vertex="1">
          <mxGeometry x="527.5" y="510" width="110" height="40" as="geometry" />
        </mxCell>
        <mxCell id="KYylSTwYR2nfnOGgtG4M-90" value="" style="group;fillColor=#d5e8d4;strokeColor=#82b366;" parent="1" vertex="1" connectable="0">
          <mxGeometry x="680" y="560" width="110" height="50" as="geometry" />
        </mxCell>
        <mxCell id="KYylSTwYR2nfnOGgtG4M-92" value="&lt;div style=&quot;orphans: 3; widows: 3;&quot;&gt;&lt;font face=&quot;Times New Roman&quot; color=&quot;#494e52&quot;&gt;&lt;span style=&quot;font-size: 15px;&quot;&gt;RayFormer&lt;/span&gt;&lt;/font&gt;&lt;/div&gt;&lt;div&gt;&lt;span style=&quot;color: rgb(73, 78, 82); font-size: 15px; font-style: normal; font-variant-ligatures: normal; font-variant-caps: normal; font-weight: 400; letter-spacing: normal; orphans: 3; text-indent: 0px; text-transform: none; widows: 3; word-spacing: 0px; -webkit-text-stroke-width: 0px; white-space: normal; text-decoration-thickness: initial; text-decoration-style: initial; text-decoration-color: initial; float: none; display: inline !important;&quot;&gt;&lt;font face=&quot;Times New Roman&quot;&gt;ACMMM, 2024&lt;/font&gt;&lt;/span&gt;&lt;/div&gt;" style="text;whiteSpace=wrap;html=1;align=center;fillColor=none;strokeColor=none;labelBackgroundColor=none;" parent="KYylSTwYR2nfnOGgtG4M-90" vertex="1">
          <mxGeometry width="110" height="40" as="geometry" />
        </mxCell>
        <mxCell id="KYylSTwYR2nfnOGgtG4M-93" value="" style="group;fillColor=#d5e8d4;strokeColor=#82b366;" parent="1" vertex="1" connectable="0">
          <mxGeometry x="555" y="595" width="110" height="50" as="geometry" />
        </mxCell>
        <mxCell id="KYylSTwYR2nfnOGgtG4M-94" value="" style="rounded=0;whiteSpace=wrap;html=1;fillColor=#d5e8d4;strokeColor=#82b366;" parent="KYylSTwYR2nfnOGgtG4M-93" vertex="1">
          <mxGeometry width="110" height="50" as="geometry" />
        </mxCell>
        <mxCell id="KYylSTwYR2nfnOGgtG4M-95" value="&lt;span style=&quot;color: rgb(73, 78, 82); font-size: 15px; font-style: normal; font-variant-ligatures: normal; font-variant-caps: normal; font-weight: 400; letter-spacing: normal; orphans: 3; text-indent: 0px; text-transform: none; widows: 3; word-spacing: 0px; -webkit-text-stroke-width: 0px; white-space: normal; text-decoration-thickness: initial; text-decoration-style: initial; text-decoration-color: initial; float: none; display: inline !important;&quot;&gt;&lt;font face=&quot;Times New Roman&quot;&gt;FARFusion&lt;/font&gt;&lt;/span&gt;&lt;div style=&quot;orphans: 3; widows: 3;&quot;&gt;&lt;font face=&quot;Times New Roman&quot; color=&quot;#494e52&quot;&gt;&lt;span style=&quot;font-size: 15px;&quot;&gt;RAL,2024&lt;/span&gt;&lt;/font&gt;&lt;/div&gt;" style="text;whiteSpace=wrap;html=1;align=center;fillColor=none;strokeColor=none;labelBackgroundColor=none;" parent="KYylSTwYR2nfnOGgtG4M-93" vertex="1">
          <mxGeometry x="15" width="80" height="40" as="geometry" />
        </mxCell>
        <mxCell id="KYylSTwYR2nfnOGgtG4M-7" value="" style="rounded=0;whiteSpace=wrap;html=1;labelBackgroundColor=none;fillColor=#f8cecc;strokeColor=#b85450;" parent="1" vertex="1">
          <mxGeometry x="385" y="347" width="110" height="50" as="geometry" />
        </mxCell>
        <mxCell id="KYylSTwYR2nfnOGgtG4M-8" value="&lt;span style=&quot;color: rgb(73, 78, 82); font-size: 15px; font-style: normal; font-variant-ligatures: normal; font-variant-caps: normal; font-weight: 400; letter-spacing: normal; orphans: 3; text-indent: 0px; text-transform: none; widows: 3; word-spacing: 0px; -webkit-text-stroke-width: 0px; white-space: normal; text-decoration-thickness: initial; text-decoration-style: initial; text-decoration-color: initial; float: none; display: inline !important;&quot;&gt;&lt;font face=&quot;Times New Roman&quot;&gt;CELLmap&lt;/font&gt;&lt;/span&gt;&lt;div&gt;&lt;span style=&quot;color: rgb(73, 78, 82); font-size: 15px; font-style: normal; font-variant-ligatures: normal; font-variant-caps: normal; font-weight: 400; letter-spacing: normal; orphans: 3; text-indent: 0px; text-transform: none; widows: 3; word-spacing: 0px; -webkit-text-stroke-width: 0px; white-space: normal; text-decoration-thickness: initial; text-decoration-style: initial; text-decoration-color: initial; float: none; display: inline !important;&quot;&gt;&lt;font face=&quot;Times New Roman&quot;&gt;ICRA, 2025&lt;/font&gt;&lt;/span&gt;&lt;/div&gt;" style="text;whiteSpace=wrap;html=1;align=center;labelBackgroundColor=none;strokeColor=none;" parent="1" vertex="1">
          <mxGeometry x="400" y="347" width="80" height="40" as="geometry" />
        </mxCell>
        <mxCell id="KYylSTwYR2nfnOGgtG4M-3" value="" style="rounded=0;whiteSpace=wrap;html=1;fillColor=#f8cecc;strokeColor=#b85450;" parent="1" vertex="1">
          <mxGeometry x="260" y="347" width="110" height="50" as="geometry" />
        </mxCell>
        <mxCell id="KYylSTwYR2nfnOGgtG4M-4" value="&lt;span style=&quot;color: rgb(73, 78, 82); font-size: 15px; font-style: normal; font-variant-ligatures: normal; font-variant-caps: normal; font-weight: 400; letter-spacing: normal; orphans: 3; text-indent: 0px; text-transform: none; widows: 3; word-spacing: 0px; -webkit-text-stroke-width: 0px; white-space: normal; text-decoration-thickness: initial; text-decoration-style: initial; text-decoration-color: initial; float: none; display: inline !important;&quot;&gt;&lt;font face=&quot;Times New Roman&quot;&gt;PFilter&lt;/font&gt;&lt;/span&gt;&lt;div&gt;&lt;span style=&quot;color: rgb(73, 78, 82); font-size: 15px; font-style: normal; font-variant-ligatures: normal; font-variant-caps: normal; font-weight: 400; letter-spacing: normal; orphans: 3; text-indent: 0px; text-transform: none; widows: 3; word-spacing: 0px; -webkit-text-stroke-width: 0px; white-space: normal; text-decoration-thickness: initial; text-decoration-style: initial; text-decoration-color: initial; float: none; display: inline !important;&quot;&gt;&lt;font face=&quot;Times New Roman&quot;&gt;IROS, 2022&lt;/font&gt;&lt;/span&gt;&lt;/div&gt;" style="text;whiteSpace=wrap;html=1;align=center;labelBackgroundColor=none;" parent="1" vertex="1">
          <mxGeometry x="275" y="347" width="80" height="40" as="geometry" />
        </mxCell>
        <mxCell id="KYylSTwYR2nfnOGgtG4M-74" value="" style="group;fillColor=#f8cecc;strokeColor=light-dark(#a1a1a1, #d7817e);dashed=1;strokeWidth=2;" parent="1" vertex="1" connectable="0">
          <mxGeometry x="67" y="423" width="110" height="50" as="geometry" />
        </mxCell>
        <mxCell id="KYylSTwYR2nfnOGgtG4M-76" value="&lt;div style=&quot;orphans: 3; widows: 3;&quot;&gt;&lt;font face=&quot;Times New Roman&quot; color=&quot;#494e52&quot;&gt;&lt;span style=&quot;font-size: 15px;&quot;&gt;UCL&lt;/span&gt;&lt;/font&gt;&lt;/div&gt;&lt;div style=&quot;orphans: 3; widows: 3;&quot;&gt;&lt;font face=&quot;Times New Roman&quot; color=&quot;#494e52&quot;&gt;&lt;span style=&quot;font-size: 15px;&quot;&gt;Under Review&lt;/span&gt;&lt;/font&gt;&lt;/div&gt;" style="text;whiteSpace=wrap;html=1;align=center;labelBackgroundColor=none;" parent="KYylSTwYR2nfnOGgtG4M-74" vertex="1">
          <mxGeometry x="-5" width="120" height="40" as="geometry" />
        </mxCell>
        <mxCell id="KYylSTwYR2nfnOGgtG4M-96" value="" style="rounded=1;whiteSpace=wrap;html=1;sketch=1;curveFitting=1;jiggle=2;" parent="1" vertex="1">
          <mxGeometry x="566.5" y="398" width="170" height="100" as="geometry" />
        </mxCell>
        <mxCell id="KYylSTwYR2nfnOGgtG4M-97" value="&lt;font face=&quot;Comic Sans MS&quot;&gt;Manipulation&lt;/font&gt;" style="text;html=1;align=center;verticalAlign=middle;resizable=0;points=[];autosize=1;strokeColor=none;fillColor=none;fontSize=18;" parent="1" vertex="1">
          <mxGeometry x="565.5" y="363" width="130" height="40" as="geometry" />
        </mxCell>
        <mxCell id="KYylSTwYR2nfnOGgtG4M-49" value="" style="rounded=0;whiteSpace=wrap;html=1;container=0;fillColor=#fff2cc;strokeColor=#d6b656;labelBackgroundColor=none;" parent="1" vertex="1">
          <mxGeometry x="-28" y="251" width="110" height="50" as="geometry" />
        </mxCell>
        <mxCell id="KYylSTwYR2nfnOGgtG4M-50" value="&lt;div style=&quot;orphans: 3; widows: 3;&quot;&gt;&lt;font face=&quot;Times New Roman&quot; color=&quot;#494e52&quot;&gt;&lt;span style=&quot;font-size: 15px;&quot;&gt;mmPlace&lt;/span&gt;&lt;/font&gt;&lt;/div&gt;&lt;div&gt;&lt;span style=&quot;color: rgb(73, 78, 82); font-size: 15px; font-style: normal; font-variant-ligatures: normal; font-variant-caps: normal; font-weight: 400; letter-spacing: normal; orphans: 3; text-indent: 0px; text-transform: none; widows: 3; word-spacing: 0px; -webkit-text-stroke-width: 0px; white-space: normal; text-decoration-thickness: initial; text-decoration-style: initial; text-decoration-color: initial; float: none; display: inline !important;&quot;&gt;&lt;font face=&quot;Times New Roman&quot;&gt;RAL, 2024&lt;/font&gt;&lt;/span&gt;&lt;/div&gt;" style="text;whiteSpace=wrap;html=1;align=center;container=0;fillColor=none;strokeColor=none;labelBackgroundColor=none;" parent="1" vertex="1">
          <mxGeometry x="-13" y="251" width="80" height="40" as="geometry" />
        </mxCell>
        <mxCell id="KYylSTwYR2nfnOGgtG4M-52" value="" style="rounded=0;whiteSpace=wrap;html=1;container=0;fillColor=#fff2cc;strokeColor=#d6b656;labelBackgroundColor=none;" parent="1" vertex="1">
          <mxGeometry x="92" y="251" width="110" height="50" as="geometry" />
        </mxCell>
        <mxCell id="KYylSTwYR2nfnOGgtG4M-53" value="&lt;div style=&quot;orphans: 3; widows: 3;&quot;&gt;&lt;font face=&quot;Times New Roman&quot; color=&quot;#494e52&quot;&gt;&lt;span style=&quot;font-size: 15px;&quot;&gt;CRPlace&lt;/span&gt;&lt;/font&gt;&lt;/div&gt;&lt;div&gt;&lt;span style=&quot;color: rgb(73, 78, 82); font-size: 15px; font-style: normal; font-variant-ligatures: normal; font-variant-caps: normal; font-weight: 400; letter-spacing: normal; orphans: 3; text-indent: 0px; text-transform: none; widows: 3; word-spacing: 0px; -webkit-text-stroke-width: 0px; white-space: normal; text-decoration-thickness: initial; text-decoration-style: initial; text-decoration-color: initial; float: none; display: inline !important;&quot;&gt;&lt;font face=&quot;Times New Roman&quot;&gt;IROS, 2024&lt;/font&gt;&lt;/span&gt;&lt;/div&gt;" style="text;whiteSpace=wrap;html=1;align=center;container=0;fillColor=none;strokeColor=none;labelBackgroundColor=none;" parent="1" vertex="1">
          <mxGeometry x="107" y="251" width="80" height="40" as="geometry" />
        </mxCell>
        <mxCell id="KYylSTwYR2nfnOGgtG4M-82" value="" style="rounded=0;whiteSpace=wrap;html=1;container=0;fillColor=#fff2cc;strokeColor=#d6b656;labelBackgroundColor=none;" parent="1" vertex="1">
          <mxGeometry x="264.5" y="605" width="110" height="50" as="geometry" />
        </mxCell>
        <mxCell id="KYylSTwYR2nfnOGgtG4M-83" value="&lt;div style=&quot;orphans: 3; widows: 3;&quot;&gt;&lt;font face=&quot;Times New Roman&quot; color=&quot;#494e52&quot;&gt;&lt;span style=&quot;font-size: 15px;&quot;&gt;Map++&lt;/span&gt;&lt;/font&gt;&lt;/div&gt;&lt;div&gt;&lt;span style=&quot;color: rgb(73, 78, 82); font-size: 15px; font-style: normal; font-variant-ligatures: normal; font-variant-caps: normal; font-weight: 400; letter-spacing: normal; orphans: 3; text-indent: 0px; text-transform: none; widows: 3; word-spacing: 0px; -webkit-text-stroke-width: 0px; white-space: normal; text-decoration-thickness: initial; text-decoration-style: initial; text-decoration-color: initial; float: none; display: inline !important;&quot;&gt;&lt;font face=&quot;Times New Roman&quot;&gt;Mobicom, 2024&lt;/font&gt;&lt;/span&gt;&lt;/div&gt;" style="text;whiteSpace=wrap;html=1;align=center;container=0;fillColor=none;strokeColor=none;labelBackgroundColor=none;" parent="1" vertex="1">
          <mxGeometry x="249" y="605" width="132" height="40" as="geometry" />
        </mxCell>
        <mxCell id="KYylSTwYR2nfnOGgtG4M-86" value="" style="rounded=0;whiteSpace=wrap;html=1;container=0;fillColor=#fff2cc;strokeColor=#d6b656;labelBackgroundColor=none;" parent="1" vertex="1">
          <mxGeometry x="385.5" y="605" width="110" height="50" as="geometry" />
        </mxCell>
        <mxCell id="KYylSTwYR2nfnOGgtG4M-87" value="&lt;div style=&quot;orphans: 3; widows: 3;&quot;&gt;&lt;font face=&quot;Times New Roman&quot; color=&quot;#494e52&quot;&gt;&lt;span style=&quot;font-size: 15px;&quot;&gt;MT-PCR&lt;/span&gt;&lt;/font&gt;&lt;/div&gt;&lt;div style=&quot;orphans: 3; widows: 3;&quot;&gt;&lt;font face=&quot;Times New Roman&quot; color=&quot;#494e52&quot;&gt;&lt;span style=&quot;font-size: 15px;&quot;&gt;ICRA, 2025&lt;/span&gt;&lt;/font&gt;&lt;/div&gt;" style="text;whiteSpace=wrap;html=1;align=center;container=0;fillColor=none;strokeColor=none;labelBackgroundColor=none;" parent="1" vertex="1">
          <mxGeometry x="395.5" y="605" width="90" height="40" as="geometry" />
        </mxCell>
        <mxCell id="KYylSTwYR2nfnOGgtG4M-44" value="&lt;span style=&quot;color: rgb(73, 78, 82); font-size: 15px; font-style: normal; font-variant-ligatures: normal; font-variant-caps: normal; font-weight: 400; letter-spacing: normal; orphans: 3; text-indent: 0px; text-transform: none; widows: 3; word-spacing: 0px; -webkit-text-stroke-width: 0px; white-space: normal; text-decoration-thickness: initial; text-decoration-style: initial; text-decoration-color: initial; float: none; display: inline !important;&quot;&gt;&lt;font face=&quot;Times New Roman&quot;&gt;ScanTrimmer&lt;/font&gt;&lt;/span&gt;&lt;div style=&quot;orphans: 3; widows: 3;&quot;&gt;&lt;font face=&quot;Times New Roman&quot; color=&quot;#494e52&quot;&gt;&lt;span style=&quot;font-size: 15px;&quot;&gt;ROBIO, 2023&lt;/span&gt;&lt;/font&gt;&lt;/div&gt;" style="text;whiteSpace=wrap;html=1;align=center;fillColor=none;strokeColor=none;labelBackgroundColor=none;" parent="1" vertex="1">
          <mxGeometry x="262.5" y="413" width="105" height="40" as="geometry" />
        </mxCell>
        <mxCell id="KYylSTwYR2nfnOGgtG4M-105" value="" style="group;fillColor=#fff2cc;strokeColor=#d6b656;labelBackgroundColor=none;" parent="1" vertex="1" connectable="0">
          <mxGeometry x="323.5" y="477" width="110" height="50" as="geometry" />
        </mxCell>
        <mxCell id="KYylSTwYR2nfnOGgtG4M-99" value="" style="rounded=0;whiteSpace=wrap;html=1;fillColor=#f8cecc;strokeColor=#B85450;strokeWidth=1;" parent="1" vertex="1">
          <mxGeometry x="598.5" y="424" width="110" height="50" as="geometry" />
        </mxCell>
        <mxCell id="KYylSTwYR2nfnOGgtG4M-106" value="&lt;span style=&quot;color: rgb(73, 78, 82); font-size: 15px; font-style: normal; font-variant-ligatures: normal; font-variant-caps: normal; font-weight: 400; letter-spacing: normal; orphans: 3; text-indent: 0px; text-transform: none; widows: 3; word-spacing: 0px; -webkit-text-stroke-width: 0px; white-space: normal; text-decoration-thickness: initial; text-decoration-style: initial; text-decoration-color: initial; float: none; display: inline !important;&quot;&gt;&lt;font face=&quot;Times New Roman&quot;&gt;OCC-VO&lt;/font&gt;&lt;/span&gt;&lt;div style=&quot;orphans: 3; widows: 3;&quot;&gt;&lt;font face=&quot;Times New Roman&quot; color=&quot;#494e52&quot;&gt;&lt;span style=&quot;font-size: 15px;&quot;&gt;ICRA, 2024&lt;/span&gt;&lt;/font&gt;&lt;/div&gt;" style="text;whiteSpace=wrap;html=1;align=center;fillColor=none;strokeColor=none;labelBackgroundColor=none;" parent="1" vertex="1">
          <mxGeometry x="326" y="478" width="105" height="40" as="geometry" />
        </mxCell>
        <mxCell id="KYylSTwYR2nfnOGgtG4M-100" value="&lt;div&gt;&lt;span style=&quot;color: rgb(73, 78, 82); font-size: 15px; font-style: normal; font-variant-ligatures: normal; font-variant-caps: normal; font-weight: 400; letter-spacing: normal; orphans: 3; text-indent: 0px; text-transform: none; widows: 3; word-spacing: 0px; -webkit-text-stroke-width: 0px; white-space: normal; text-decoration-thickness: initial; text-decoration-style: initial; text-decoration-color: initial; float: none; display: inline !important;&quot;&gt;&lt;font face=&quot;Times New Roman&quot;&gt;STDArm&amp;nbsp;&lt;/font&gt;&lt;/span&gt;&lt;/div&gt;&lt;div style=&quot;orphans: 3; widows: 3;&quot;&gt;&lt;font face=&quot;Times New Roman&quot; color=&quot;#494e52&quot;&gt;&lt;span style=&quot;font-size: 15px;&quot;&gt;RSS, 2025&lt;/span&gt;&lt;/font&gt;&lt;/div&gt;" style="text;whiteSpace=wrap;html=1;align=center;labelBackgroundColor=none;" parent="1" vertex="1">
          <mxGeometry x="581" y="424" width="141" height="40" as="geometry" />
        </mxCell>
        <mxCell id="KYylSTwYR2nfnOGgtG4M-16" value="" style="rounded=1;whiteSpace=wrap;html=1;sketch=1;curveFitting=1;jiggle=2;" parent="1" vertex="1">
          <mxGeometry x="-60" y="550" width="280" height="130" as="geometry" />
        </mxCell>
        <mxCell id="KYylSTwYR2nfnOGgtG4M-27" value="" style="group;fillColor=#d5e8d4;strokeColor=#82b366;" parent="1" vertex="1" connectable="0">
          <mxGeometry x="-36.25" y="558" width="106.56250000000001" height="50" as="geometry" />
        </mxCell>
        <mxCell id="KYylSTwYR2nfnOGgtG4M-28" value="" style="rounded=0;whiteSpace=wrap;html=1;fillColor=#d5e8d4;strokeColor=#82b366;" parent="KYylSTwYR2nfnOGgtG4M-27" vertex="1">
          <mxGeometry width="106.56250000000001" height="50" as="geometry" />
        </mxCell>
        <mxCell id="KYylSTwYR2nfnOGgtG4M-29" value="&lt;div style=&quot;orphans: 3; widows: 3;&quot;&gt;&lt;font face=&quot;Times New Roman&quot; color=&quot;#494e52&quot;&gt;&lt;span style=&quot;font-size: 15px;&quot;&gt;FastBKRRT&lt;/span&gt;&lt;/font&gt;&lt;/div&gt;&lt;div&gt;&lt;span style=&quot;color: rgb(73, 78, 82); font-size: 15px; font-style: normal; font-variant-ligatures: normal; font-variant-caps: normal; font-weight: 400; letter-spacing: normal; orphans: 3; text-indent: 0px; text-transform: none; widows: 3; word-spacing: 0px; -webkit-text-stroke-width: 0px; white-space: normal; text-decoration-thickness: initial; text-decoration-style: initial; text-decoration-color: initial; float: none; display: inline !important;&quot;&gt;&lt;font face=&quot;Times New Roman&quot;&gt;ICRA, 2021&lt;/font&gt;&lt;/span&gt;&lt;/div&gt;" style="text;whiteSpace=wrap;html=1;align=center;fillColor=none;strokeColor=none;labelBackgroundColor=none;" parent="KYylSTwYR2nfnOGgtG4M-27" vertex="1">
          <mxGeometry x="14.531250000000002" width="77.50000000000001" height="40" as="geometry" />
        </mxCell>
        <mxCell id="KYylSTwYR2nfnOGgtG4M-30" value="" style="group;fillColor=#d5e8d4;strokeColor=#82b366;" parent="1" vertex="1" connectable="0">
          <mxGeometry x="88.71875" y="558" width="106.56250000000001" height="50" as="geometry" />
        </mxCell>
        <mxCell id="KYylSTwYR2nfnOGgtG4M-31" value="" style="rounded=0;whiteSpace=wrap;html=1;fillColor=#d5e8d4;strokeColor=#82b366;" parent="KYylSTwYR2nfnOGgtG4M-30" vertex="1">
          <mxGeometry width="106.56250000000001" height="50" as="geometry" />
        </mxCell>
        <mxCell id="KYylSTwYR2nfnOGgtG4M-32" value="&lt;div style=&quot;orphans: 3; widows: 3;&quot;&gt;&lt;font face=&quot;Times New Roman&quot; color=&quot;#494e52&quot;&gt;&lt;span style=&quot;font-size: 15px;&quot;&gt;P3O&lt;/span&gt;&lt;/font&gt;&lt;/div&gt;&lt;div&gt;&lt;span style=&quot;color: rgb(73, 78, 82); font-size: 15px; font-style: normal; font-variant-ligatures: normal; font-variant-caps: normal; font-weight: 400; letter-spacing: normal; orphans: 3; text-indent: 0px; text-transform: none; widows: 3; word-spacing: 0px; -webkit-text-stroke-width: 0px; white-space: normal; text-decoration-thickness: initial; text-decoration-style: initial; text-decoration-color: initial; float: none; display: inline !important;&quot;&gt;&lt;font face=&quot;Times New Roman&quot;&gt;ICME, 2023&lt;/font&gt;&lt;/span&gt;&lt;/div&gt;" style="text;whiteSpace=wrap;html=1;align=center;fillColor=none;strokeColor=none;labelBackgroundColor=none;" parent="KYylSTwYR2nfnOGgtG4M-30" vertex="1">
          <mxGeometry x="-2.7300000000000004" width="112.03" height="40" as="geometry" />
        </mxCell>
        <mxCell id="KYylSTwYR2nfnOGgtG4M-34" value="" style="group;fillColor=#d5e8d4;strokeColor=#82b366;" parent="1" vertex="1" connectable="0">
          <mxGeometry x="88.71875" y="618" width="106.56250000000001" height="50" as="geometry" />
        </mxCell>
        <mxCell id="KYylSTwYR2nfnOGgtG4M-35" value="" style="rounded=0;whiteSpace=wrap;html=1;fillColor=#d5e8d4;strokeColor=#82b366;" parent="KYylSTwYR2nfnOGgtG4M-34" vertex="1">
          <mxGeometry width="106.56250000000001" height="50" as="geometry" />
        </mxCell>
        <mxCell id="KYylSTwYR2nfnOGgtG4M-36" value="&lt;div style=&quot;orphans: 3; widows: 3;&quot;&gt;&lt;font face=&quot;Times New Roman&quot; color=&quot;#494e52&quot;&gt;&lt;span style=&quot;font-size: 15px;&quot;&gt;PHP&lt;/span&gt;&lt;/font&gt;&lt;/div&gt;&lt;div&gt;&lt;span style=&quot;color: rgb(73, 78, 82); font-size: 15px; font-style: normal; font-variant-ligatures: normal; font-variant-caps: normal; font-weight: 400; letter-spacing: normal; orphans: 3; text-indent: 0px; text-transform: none; widows: 3; word-spacing: 0px; -webkit-text-stroke-width: 0px; white-space: normal; text-decoration-thickness: initial; text-decoration-style: initial; text-decoration-color: initial; float: none; display: inline !important;&quot;&gt;&lt;font face=&quot;Times New Roman&quot;&gt;RAL, 2024&lt;/font&gt;&lt;/span&gt;&lt;/div&gt;" style="text;whiteSpace=wrap;html=1;align=center;fillColor=none;strokeColor=none;labelBackgroundColor=none;" parent="KYylSTwYR2nfnOGgtG4M-34" vertex="1">
          <mxGeometry x="14.531250000000002" width="77.50000000000001" height="40" as="geometry" />
        </mxCell>
        <mxCell id="KYylSTwYR2nfnOGgtG4M-58" value="" style="group;fillColor=#d5e8d4;strokeColor=#82b366;" parent="1" vertex="1" connectable="0">
          <mxGeometry x="-36.25" y="618" width="106.56250000000001" height="50" as="geometry" />
        </mxCell>
        <mxCell id="KYylSTwYR2nfnOGgtG4M-59" value="" style="rounded=0;whiteSpace=wrap;html=1;fillColor=#d5e8d4;strokeColor=#82b366;" parent="KYylSTwYR2nfnOGgtG4M-58" vertex="1">
          <mxGeometry width="106.56250000000001" height="50" as="geometry" />
        </mxCell>
        <mxCell id="KYylSTwYR2nfnOGgtG4M-60" value="&lt;div style=&quot;orphans: 3; widows: 3;&quot;&gt;&lt;font face=&quot;Times New Roman&quot; color=&quot;#494e52&quot;&gt;&lt;span style=&quot;font-size: 15px;&quot;&gt;LDP&lt;/span&gt;&lt;/font&gt;&lt;/div&gt;&lt;div&gt;&lt;span style=&quot;color: rgb(73, 78, 82); font-size: 15px; font-style: normal; font-variant-ligatures: normal; font-variant-caps: normal; font-weight: 400; letter-spacing: normal; orphans: 3; text-indent: 0px; text-transform: none; widows: 3; word-spacing: 0px; -webkit-text-stroke-width: 0px; white-space: normal; text-decoration-thickness: initial; text-decoration-style: initial; text-decoration-color: initial; float: none; display: inline !important;&quot;&gt;&lt;font face=&quot;Times New Roman&quot;&gt;IROS, 2024&lt;/font&gt;&lt;/span&gt;&lt;/div&gt;" style="text;whiteSpace=wrap;html=1;align=center;fillColor=none;strokeColor=none;labelBackgroundColor=none;" parent="KYylSTwYR2nfnOGgtG4M-58" vertex="1">
          <mxGeometry x="14.531250000000002" width="77.50000000000001" height="40" as="geometry" />
        </mxCell>
        <mxCell id="KYylSTwYR2nfnOGgtG4M-18" value="&lt;font face=&quot;Comic Sans MS&quot;&gt;Navigation&lt;/font&gt;" style="text;html=1;align=center;verticalAlign=middle;resizable=0;points=[];autosize=1;strokeColor=none;fillColor=none;fontSize=18;" parent="1" vertex="1">
          <mxGeometry x="-65" y="515" width="110" height="40" as="geometry" />
        </mxCell>
        <mxCell id="KYylSTwYR2nfnOGgtG4M-107" value="" style="html=1;shadow=0;dashed=0;align=center;verticalAlign=middle;shape=mxgraph.arrows2.arrow;dy=0.6;dx=40;notch=0;sketch=1;curveFitting=1;jiggle=2;rotation=-150;" parent="1" vertex="1">
          <mxGeometry x="177" y="313" width="77" height="50" as="geometry" />
        </mxCell>
        <mxCell id="KYylSTwYR2nfnOGgtG4M-108" value="" style="html=1;shadow=0;dashed=0;align=center;verticalAlign=middle;shape=mxgraph.arrows2.arrow;dy=0.6;dx=40;notch=0;sketch=1;curveFitting=1;jiggle=2;rotation=-177;" parent="1" vertex="1">
          <mxGeometry x="183.42999999999998" y="422" width="67.14" height="47" as="geometry" />
        </mxCell>
        <mxCell id="KYylSTwYR2nfnOGgtG4M-109" value="" style="html=1;shadow=0;dashed=0;align=center;verticalAlign=middle;shape=mxgraph.arrows2.arrow;dy=0.6;dx=40;notch=0;sketch=1;curveFitting=1;jiggle=2;rotation=-45;" parent="1" vertex="1">
          <mxGeometry x="502.24999999999994" y="310" width="80" height="48.5" as="geometry" />
        </mxCell>
        <mxCell id="KYylSTwYR2nfnOGgtG4M-110" value="" style="html=1;shadow=0;dashed=0;align=center;verticalAlign=middle;shape=mxgraph.arrows2.arrow;dy=0.6;dx=40;notch=0;sketch=1;curveFitting=1;jiggle=2;rotation=0;" parent="1" vertex="1">
          <mxGeometry x="502.25" y="417" width="77.75" height="48.5" as="geometry" />
        </mxCell>
        <mxCell id="KYylSTwYR2nfnOGgtG4M-111" value="" style="html=1;shadow=0;dashed=0;align=center;verticalAlign=middle;shape=mxgraph.arrows2.arrow;dy=0.6;dx=40;notch=0;sketch=1;curveFitting=1;jiggle=2;rotation=90;" parent="1" vertex="1">
          <mxGeometry x="340" y="542" width="67.14" height="47" as="geometry" />
        </mxCell>
        <mxCell id="KYylSTwYR2nfnOGgtG4M-121" value="" style="group" parent="1" vertex="1" connectable="0">
          <mxGeometry x="45" y="710" width="110" height="50" as="geometry" />
        </mxCell>
        <mxCell id="KYylSTwYR2nfnOGgtG4M-113" value="" style="rounded=0;whiteSpace=wrap;html=1;fillColor=#f8cecc;strokeColor=#b85450;" parent="KYylSTwYR2nfnOGgtG4M-121" vertex="1">
          <mxGeometry width="110" height="50" as="geometry" />
        </mxCell>
        <mxCell id="KYylSTwYR2nfnOGgtG4M-114" value="&lt;div style=&quot;orphans: 3; widows: 3;&quot;&gt;&lt;font face=&quot;Times New Roman&quot; color=&quot;#494e52&quot;&gt;&lt;span style=&quot;font-size: 15px;&quot;&gt;Major&lt;/span&gt;&lt;/font&gt;&lt;/div&gt;&lt;div style=&quot;orphans: 3; widows: 3;&quot;&gt;&lt;span style=&quot;background-color: transparent; font-size: 15px;&quot;&gt;&lt;font face=&quot;Times New Roman&quot; color=&quot;#494e52&quot;&gt;Contributor&lt;/font&gt;&lt;/span&gt;&lt;/div&gt;" style="text;whiteSpace=wrap;html=1;align=center;labelBackgroundColor=none;" parent="KYylSTwYR2nfnOGgtG4M-121" vertex="1">
          <mxGeometry x="15" width="80" height="40" as="geometry" />
        </mxCell>
        <mxCell id="KYylSTwYR2nfnOGgtG4M-122" value="" style="group" parent="1" vertex="1" connectable="0">
          <mxGeometry x="221" y="710" width="110" height="50" as="geometry" />
        </mxCell>
        <mxCell id="KYylSTwYR2nfnOGgtG4M-115" value="" style="rounded=0;whiteSpace=wrap;html=1;fillColor=#fff2cc;strokeColor=#d6b656;" parent="KYylSTwYR2nfnOGgtG4M-122" vertex="1">
          <mxGeometry width="110" height="50" as="geometry" />
        </mxCell>
        <mxCell id="KYylSTwYR2nfnOGgtG4M-116" value="&lt;div style=&quot;orphans: 3; widows: 3;&quot;&gt;&lt;span style=&quot;background-color: transparent; font-size: 15px;&quot;&gt;&lt;font face=&quot;Times New Roman&quot; color=&quot;#494e52&quot;&gt;Significant&lt;/font&gt;&lt;/span&gt;&lt;/div&gt;&lt;div style=&quot;orphans: 3; widows: 3;&quot;&gt;&lt;span style=&quot;background-color: transparent; font-size: 15px;&quot;&gt;&lt;font face=&quot;Times New Roman&quot; color=&quot;#494e52&quot;&gt;Contributor&lt;/font&gt;&lt;/span&gt;&lt;/div&gt;" style="text;whiteSpace=wrap;html=1;align=center;labelBackgroundColor=none;" parent="KYylSTwYR2nfnOGgtG4M-122" vertex="1">
          <mxGeometry x="15" width="80" height="40" as="geometry" />
        </mxCell>
        <mxCell id="KYylSTwYR2nfnOGgtG4M-123" value="" style="group;fillColor=#d5e8d4;strokeColor=#82b366;container=0;" parent="1" vertex="1" connectable="0">
          <mxGeometry x="410" y="710" width="110" height="50" as="geometry" />
        </mxCell>
        <mxCell id="KYylSTwYR2nfnOGgtG4M-117" value="" style="rounded=0;whiteSpace=wrap;html=1;fillColor=#d5e8d4;strokeColor=#82b366;container=0;" parent="1" vertex="1">
          <mxGeometry x="410" y="710" width="110" height="50" as="geometry" />
        </mxCell>
        <mxCell id="KYylSTwYR2nfnOGgtG4M-118" value="&lt;div style=&quot;orphans: 3; widows: 3;&quot;&gt;&lt;font face=&quot;Times New Roman&quot; color=&quot;#494e52&quot;&gt;&lt;span style=&quot;font-size: 15px;&quot;&gt;Minor&lt;/span&gt;&lt;/font&gt;&lt;/div&gt;&lt;div style=&quot;orphans: 3; widows: 3;&quot;&gt;&lt;span style=&quot;background-color: transparent; font-size: 15px;&quot;&gt;&lt;font face=&quot;Times New Roman&quot; color=&quot;#494e52&quot;&gt;Contributor&lt;/font&gt;&lt;/span&gt;&lt;/div&gt;" style="text;whiteSpace=wrap;html=1;align=center;labelBackgroundColor=none;container=0;fillColor=none;strokeColor=none;" parent="1" vertex="1">
          <mxGeometry x="425" y="710" width="80" height="40" as="geometry" />
        </mxCell>
        <mxCell id="KYylSTwYR2nfnOGgtG4M-119" value="" style="rounded=0;whiteSpace=wrap;html=1;dashed=1;strokeWidth=2;strokeColor=light-dark(#A1A1A1,#EDEDED);" parent="1" vertex="1">
          <mxGeometry x="574" y="710" width="110" height="50" as="geometry" />
        </mxCell>
        <mxCell id="KYylSTwYR2nfnOGgtG4M-120" value="&lt;div style=&quot;orphans: 3; widows: 3;&quot;&gt;&lt;span style=&quot;color: rgb(73, 78, 82); font-family: &amp;quot;Times New Roman&amp;quot;; font-size: 15px;&quot;&gt;Under Review&lt;/span&gt;&lt;br&gt;&lt;/div&gt;" style="text;whiteSpace=wrap;html=1;align=center;labelBackgroundColor=none;" parent="1" vertex="1">
          <mxGeometry x="589" y="710" width="80" height="40" as="geometry" />
        </mxCell>
        <mxCell id="KYylSTwYR2nfnOGgtG4M-15" value="&lt;span style=&quot;color: rgb(73, 78, 82); font-size: 15px; font-style: normal; font-variant-ligatures: normal; font-variant-caps: normal; font-weight: 400; letter-spacing: normal; orphans: 3; text-indent: 0px; text-transform: none; widows: 3; word-spacing: 0px; -webkit-text-stroke-width: 0px; white-space: normal; text-decoration-thickness: initial; text-decoration-style: initial; text-decoration-color: initial; float: none; display: inline !important;&quot;&gt;&lt;font face=&quot;Times New Roman&quot;&gt;MM-Gaussian&lt;/font&gt;&lt;/span&gt;&lt;div&gt;&lt;span style=&quot;color: rgb(73, 78, 82); font-size: 15px; font-style: normal; font-variant-ligatures: normal; font-variant-caps: normal; font-weight: 400; letter-spacing: normal; orphans: 3; text-indent: 0px; text-transform: none; widows: 3; word-spacing: 0px; -webkit-text-stroke-width: 0px; white-space: normal; text-decoration-thickness: initial; text-decoration-style: initial; text-decoration-color: initial; float: none; display: inline !important;&quot;&gt;&lt;font face=&quot;Times New Roman&quot;&gt;IROS, 2024&lt;/font&gt;&lt;/span&gt;&lt;/div&gt;" style="text;whiteSpace=wrap;html=1;align=center;fillColor=none;strokeColor=none;labelBackgroundColor=none;" parent="1" vertex="1">
          <mxGeometry x="547.75" y="242" width="119" height="40" as="geometry" />
        </mxCell>
        <mxCell id="KO2oBQ6qNSbd2vuwGGq2-1" value="" style="group;fillColor=#d5e8d4;strokeColor=#82b366;" parent="1" vertex="1" connectable="0">
          <mxGeometry x="680" y="618" width="110" height="50" as="geometry" />
        </mxCell>
        <mxCell id="KO2oBQ6qNSbd2vuwGGq2-2" value="&lt;div style=&quot;orphans: 3; widows: 3;&quot;&gt;&lt;font face=&quot;Times New Roman&quot; color=&quot;#494e52&quot;&gt;&lt;span style=&quot;font-size: 15px;&quot;&gt;RaCFormer&lt;/span&gt;&lt;/font&gt;&lt;/div&gt;&lt;div&gt;&lt;span style=&quot;color: rgb(73, 78, 82); font-size: 15px; font-style: normal; font-variant-ligatures: normal; font-variant-caps: normal; font-weight: 400; letter-spacing: normal; orphans: 3; text-indent: 0px; text-transform: none; widows: 3; word-spacing: 0px; -webkit-text-stroke-width: 0px; white-space: normal; text-decoration-thickness: initial; text-decoration-style: initial; text-decoration-color: initial; float: none; display: inline !important;&quot;&gt;&lt;font face=&quot;Times New Roman&quot;&gt;CVPR&lt;/font&gt;&lt;/span&gt;&lt;span style=&quot;font-family: &amp;quot;Times New Roman&amp;quot;; color: light-dark(rgb(73, 78, 82), rgb(167, 171, 174)); font-size: 15px; orphans: 3; widows: 3; background-color: transparent;&quot;&gt;, 2025&lt;/span&gt;&lt;/div&gt;" style="text;whiteSpace=wrap;html=1;align=center;fillColor=none;strokeColor=none;labelBackgroundColor=none;" parent="KO2oBQ6qNSbd2vuwGGq2-1" vertex="1">
          <mxGeometry width="110" height="40" as="geometry" />
        </mxCell>
      </root>
    </mxGraphModel>
  </diagram>
</mxfile>
